<?xml version="1.0" encoding="UTF-8" standalone="no"?>
<!-- Created with Inkscape (http://www.inkscape.org/) -->

<svg
   xmlns:dc="http://purl.org/dc/elements/1.1/"
   xmlns:cc="http://creativecommons.org/ns#"
   xmlns:rdf="http://www.w3.org/1999/02/22-rdf-syntax-ns#"
   xmlns:svg="http://www.w3.org/2000/svg"
   xmlns="http://www.w3.org/2000/svg"
   xmlns:sodipodi="http://sodipodi.sourceforge.net/DTD/sodipodi-0.dtd"
   xmlns:inkscape="http://www.inkscape.org/namespaces/inkscape"
   width="161.6839"
   height="161.37695"
   id="svg2"
   version="1.1"
   inkscape:version="0.48.4 r9939"
   sodipodi:docname="5x5_gradient.svg"
   inkscape:export-filename="C:\Users\Teacher\Documents\GitHub\ecsp-book\images\5x5_gradient.png"
   inkscape:export-xdpi="250"
   inkscape:export-ydpi="250">
  <defs
     id="defs4" />
  <sodipodi:namedview
     id="base"
     pagecolor="#ffffff"
     bordercolor="#666666"
     borderopacity="1.0"
     inkscape:pageopacity="0.0"
     inkscape:pageshadow="2"
     inkscape:zoom="2.8"
     inkscape:cx="17.088975"
     inkscape:cy="90.726205"
     inkscape:document-units="px"
     inkscape:current-layer="layer1"
     showgrid="false"
     inkscape:window-width="1366"
     inkscape:window-height="706"
     inkscape:window-x="-8"
     inkscape:window-y="-8"
     inkscape:window-maximized="1"
     fit-margin-left="5"
     fit-margin-top="5"
     fit-margin-right="5"
     fit-margin-bottom="5" />
  <metadata
     id="metadata7">
    <rdf:RDF>
      <cc:Work
         rdf:about="">
        <dc:format>image/svg+xml</dc:format>
        <dc:type
           rdf:resource="http://purl.org/dc/dcmitype/StillImage" />
        <dc:title></dc:title>
      </cc:Work>
    </rdf:RDF>
  </metadata>
  <g
     inkscape:label="Layer 1"
     inkscape:groupmode="layer"
     id="layer1"
     transform="translate(6.1740047,-140.79075)">
    <rect
       style="fill:none;stroke:#000000;stroke-width:1;stroke-miterlimit:4;stroke-opacity:1;stroke-dasharray:none;stroke-dashoffset:0"
       id="rect2985"
       width="150.25043"
       height="150.25043"
       x="-0.67400473"
       y="146.33105" />
    <path
       style="fill:none;stroke:#000000;stroke-width:1px;stroke-linecap:butt;stroke-linejoin:miter;stroke-opacity:1"
       d="m 29.642857,146.6479 0,149.64285"
       id="path3755"
       inkscape:connector-curvature="0" />
    <path
       style="fill:none;stroke:#000000;stroke-width:1px;stroke-linecap:butt;stroke-linejoin:miter;stroke-opacity:1"
       d="m 59.642857,146.29075 0,150.35715"
       id="path3757"
       inkscape:connector-curvature="0"
       sodipodi:nodetypes="cc" />
    <path
       style="fill:none;stroke:#000000;stroke-width:1px;stroke-linecap:butt;stroke-linejoin:miter;stroke-opacity:1"
       d="M 90,146.33036 90,296.6677"
       id="path3759"
       inkscape:connector-curvature="0"
       sodipodi:nodetypes="cc" />
    <path
       style="fill:none;stroke:#000000;stroke-width:1px;stroke-linecap:butt;stroke-linejoin:miter;stroke-opacity:1"
       d="m 120,146.6479 0,149.9152"
       id="path3761"
       inkscape:connector-curvature="0"
       sodipodi:nodetypes="cc" />
    <g
       id="g3790"
       transform="matrix(0,1,-1,0,296.30065,146.6578)">
      <path
         inkscape:connector-curvature="0"
         id="path3755-1"
         d="m 29.642857,146.6479 0,149.64285"
         style="fill:none;stroke:#000000;stroke-width:1px;stroke-linecap:butt;stroke-linejoin:miter;stroke-opacity:1" />
      <path
         sodipodi:nodetypes="cc"
         inkscape:connector-curvature="0"
         id="path3757-7"
         d="m 59.642857,146.29075 0,150.35715"
         style="fill:none;stroke:#000000;stroke-width:1px;stroke-linecap:butt;stroke-linejoin:miter;stroke-opacity:1" />
      <path
         sodipodi:nodetypes="cc"
         inkscape:connector-curvature="0"
         id="path3759-4"
         d="M 90,146.33036 90,296.6677"
         style="fill:none;stroke:#000000;stroke-width:1px;stroke-linecap:butt;stroke-linejoin:miter;stroke-opacity:1" />
      <path
         sodipodi:nodetypes="cc"
         inkscape:connector-curvature="0"
         id="path3761-0"
         d="m 120,146.6479 0,149.9152"
         style="fill:none;stroke:#000000;stroke-width:1px;stroke-linecap:butt;stroke-linejoin:miter;stroke-opacity:1" />
    </g>
    <path
       style="fill:#000000;fill-opacity:1;stroke:none"
       d="m 36.660403,110.93646 0,-14.285712 14.285715,0 14.285714,0 0,14.285712 0,14.28572 -14.285714,0 -14.285715,0 0,-14.28572 z"
       id="path3822"
       inkscape:connector-curvature="0"
       transform="translate(-6.1740047,140.79075)" />
    <path
       style="fill:#000000;fill-opacity:1;stroke:none"
       d="m 66.660403,110.93646 0,-14.285712 14.464286,0 14.464286,0 0,14.285712 0,14.28572 -14.464286,0 -14.464286,0 0,-14.28572 z"
       id="path3824"
       inkscape:connector-curvature="0"
       transform="translate(-6.1740047,140.79075)" />
    <path
       style="fill:#000000;fill-opacity:1;stroke:none"
       d="m 97.017546,110.93646 0,-14.285712 14.285714,0 14.28571,0 0,14.285712 0,14.28572 -14.28571,0 -14.285714,0 0,-14.28572 z"
       id="path3826"
       inkscape:connector-curvature="0"
       transform="translate(-6.1740047,140.79075)" />
    <path
       style="fill:#000000;fill-opacity:1;stroke:none"
       d="m 97.017546,50.57932 0,-14.285715 14.285714,0 14.28571,0 0,14.285715 0,14.285714 -14.28571,0 -14.285714,0 0,-14.285714 z"
       id="path3828"
       inkscape:connector-curvature="0"
       transform="translate(-6.1740047,140.79075)" />
    <path
       style="fill:#000000;fill-opacity:1;stroke:none"
       d="m 36.660403,50.57932 0,-14.285715 14.285715,0 14.285714,0 0,14.285715 0,14.285714 -14.285714,0 -14.285715,0 0,-14.285714 z"
       id="path3830"
       inkscape:connector-curvature="0"
       transform="translate(-6.1740047,140.79075)" />
    <path
       style="fill:#ffffff;fill-opacity:1;stroke:none"
       d="m 97.017547,50.57932 0,-14.285715 14.285713,0 14.28572,0 0,14.285715 0,14.285714 -14.28572,0 -14.285713,0 0,-14.285714 z"
       id="path3849"
       inkscape:connector-curvature="0"
       transform="translate(-6.1740047,140.79075)" />
    <path
       style="fill:#ffffff;fill-opacity:1;stroke:none"
       d="m 36.660404,50.57932 0,-14.285715 14.285714,0 14.285714,0 0,14.285715 0,14.285714 -14.285714,0 -14.285714,0 0,-14.285714 z"
       id="path3851"
       inkscape:connector-curvature="0"
       transform="translate(-6.1740047,140.79075)" />
    <path
       style="fill:#ffffff;fill-opacity:1;stroke:none"
       d="m 36.660404,110.93646 0,-14.285712 14.285714,0 14.285714,0 0,14.285712 0,14.28572 -14.285714,0 -14.285714,0 0,-14.28572 z"
       id="path3853"
       inkscape:connector-curvature="0"
       transform="translate(-6.1740047,140.79075)" />
    <path
       style="fill:#ffffff;fill-opacity:1;stroke:none"
       d="m 66.660404,110.93646 0,-14.285712 14.464286,0 14.464285,0 0,14.285712 0,14.28572 -14.464285,0 -14.464286,0 0,-14.28572 z"
       id="path3855"
       inkscape:connector-curvature="0"
       transform="translate(-6.1740047,140.79075)" />
    <path
       style="fill:#ffffff;fill-opacity:1;stroke:none"
       d="m 97.017547,110.93646 0,-14.285712 14.285713,0 14.28572,0 0,14.285712 0,14.28572 -14.28572,0 -14.285713,0 0,-14.28572 z"
       id="path3857"
       inkscape:connector-curvature="0"
       transform="translate(-6.1740047,140.79075)" />
    <path
       style="fill:#000000;fill-opacity:1;stroke:none"
       d="m 66.660404,80.757891 0,-14.464286 14.464286,0 14.464285,0 0,14.464286 0,14.464286 -14.464285,0 -14.464286,0 0,-14.464286 z"
       id="path3859"
       inkscape:connector-curvature="0"
       transform="translate(-6.1740047,140.79075)" />
    <path
       style="fill:#000000;fill-opacity:1;stroke:none"
       d="m 36.660404,80.757891 0,-14.464286 14.285714,0 14.285714,0 0,14.464286 0,14.464286 -14.285714,0 -14.285714,0 0,-14.464286 z"
       id="path3861"
       inkscape:connector-curvature="0"
       transform="translate(-6.1740047,140.79075)" />
    <path
       style="fill:#000000;fill-opacity:1;stroke:none"
       d="m 66.660404,50.57932 0,-14.285715 14.464286,0 14.464285,0 0,14.285715 0,14.285714 -14.464285,0 -14.464286,0 0,-14.285714 z"
       id="path3863"
       inkscape:connector-curvature="0"
       transform="translate(-6.1740047,140.79075)" />
    <path
       style="fill:#000000;fill-opacity:1;stroke:none"
       d="m 97.017547,80.757891 0,-14.464286 14.285713,0 14.28572,0 0,14.464286 0,14.464286 -14.28572,0 -14.285713,0 0,-14.464286 z"
       id="path3865"
       inkscape:connector-curvature="0"
       transform="translate(-6.1740047,140.79075)" />
    <path
       style="fill:#000000;fill-opacity:1;stroke:none"
       d="m 66.660404,110.93646 0,-14.285712 14.464286,0 14.464285,0 0,14.285712 0,14.28572 -14.464285,0 -14.464286,0 0,-14.28572 z"
       id="path3867"
       inkscape:connector-curvature="0"
       transform="translate(-6.1740047,140.79075)" />
    <path
       style="fill:#282828;fill-opacity:1;stroke:none"
       d="m 97.017547,110.93646 0,-14.285712 14.285713,0 14.28572,0 0,14.285712 0,14.28572 -14.28572,0 -14.285713,0 0,-14.28572 z"
       id="path3869"
       inkscape:connector-curvature="0"
       transform="translate(-6.1740047,140.79075)" />
    <path
       style="fill:#ffffff;fill-opacity:1;stroke:none"
       d="m 97.017547,80.757891 0,-14.464286 14.285713,0 14.28572,0 0,14.464286 0,14.464286 -14.28572,0 -14.285713,0 0,-14.464286 z"
       id="path3879"
       inkscape:connector-curvature="0"
       transform="translate(-6.1740047,140.79075)" />
    <path
       style="fill:#ffffff;fill-opacity:1;stroke:none"
       d="m 97.017547,110.93646 0,-14.285712 14.285713,0 14.28572,0 0,14.285712 0,14.28572 -14.28572,0 -14.285713,0 0,-14.28572 z"
       id="path3881"
       inkscape:connector-curvature="0"
       transform="translate(-6.1740047,140.79075)" />
    <path
       style="fill:#ffffff;fill-opacity:1;stroke:none"
       d="m 66.660404,110.93646 0,-14.285712 14.464286,0 14.464285,0 0,14.285712 0,14.28572 -14.464285,0 -14.464286,0 0,-14.28572 z"
       id="path3883"
       inkscape:connector-curvature="0"
       transform="translate(-6.1740047,140.79075)" />
    <path
       style="fill:#ffffff;fill-opacity:1;stroke:none"
       d="m 66.660404,80.757891 0,-14.464286 14.464286,0 14.464285,0 0,14.464286 0,14.464286 -14.464285,0 -14.464286,0 0,-14.464286 z"
       id="path3885"
       inkscape:connector-curvature="0"
       transform="translate(-6.1740047,140.79075)" />
    <path
       style="fill:#ffffff;fill-opacity:1;stroke:none"
       d="m 66.660404,50.57932 0,-14.285715 14.464286,0 14.464285,0 0,14.285715 0,14.285714 -14.464285,0 -14.464286,0 0,-14.285714 z"
       id="path3887"
       inkscape:connector-curvature="0"
       transform="translate(-6.1740047,140.79075)" />
    <path
       style="fill:#000000;fill-opacity:1;stroke:none"
       d="m 36.660404,80.757891 0,-14.464286 14.285714,0 14.285714,0 0,14.464286 0,14.464286 -14.285714,0 -14.285714,0 0,-14.464286 z"
       id="path3889"
       inkscape:connector-curvature="0"
       transform="translate(-6.1740047,140.79075)" />
    <path
       style="fill:#000000;fill-opacity:1;stroke:none"
       d="m 66.660404,80.757891 0,-14.464286 14.464286,0 14.464285,0 0,14.464286 0,14.464286 -14.464285,0 -14.464286,0 0,-14.464286 z"
       id="path3891"
       inkscape:connector-curvature="0"
       transform="translate(-6.1740047,140.79075)" />
    <path
       style="fill:#000000;fill-opacity:1;stroke:none"
       d="m 36.660404,50.57932 0,-14.285715 14.285714,0 14.285714,0 0,14.285715 0,14.285714 -14.285714,0 -14.285714,0 0,-14.285714 z"
       id="path3893"
       inkscape:connector-curvature="0"
       transform="translate(-6.1740047,140.79075)" />
    <path
       style="fill:#000000;fill-opacity:1;stroke:none"
       d="m 36.660404,20.57932 0,-14.2857147 14.285714,0 14.285714,0 0,14.2857147 0,14.285714 -14.285714,0 -14.285714,0 0,-14.285714 z"
       id="path3895"
       inkscape:connector-curvature="0"
       transform="translate(-6.1740047,140.79075)" />
    <path
       style="fill:#000000;fill-opacity:1;stroke:none"
       d="m 66.660404,20.57932 0,-14.2857147 14.464286,0 14.464285,0 0,14.2857147 0,14.285714 -14.464285,0 -14.464286,0 0,-14.285714 z"
       id="path3897"
       inkscape:connector-curvature="0"
       transform="translate(-6.1740047,140.79075)" />
    <path
       style="fill:#000000;fill-opacity:1;stroke:none"
       d="m 97.017547,20.57932 0,-14.2857147 14.285713,0 14.28572,0 0,14.2857147 0,14.285714 -14.28572,0 -14.285713,0 0,-14.285714 z"
       id="path3899"
       inkscape:connector-curvature="0"
       transform="translate(-6.1740047,140.79075)" />
    <path
       style="fill:#000000;fill-opacity:1;stroke:none"
       d="m 127.01755,20.57932 0,-14.2857147 14.10714,0 14.10714,0 0,14.2857147 0,14.285714 -14.10714,0 -14.10714,0 0,-14.285714 z"
       id="path3901"
       inkscape:connector-curvature="0"
       transform="translate(-6.1740047,140.79075)" />
    <path
       style="fill:#000000;fill-opacity:1;stroke:none"
       d="m 127.01755,50.57932 0,-14.285715 14.10714,0 14.10714,0 0,14.285715 0,14.285714 -14.10714,0 -14.10714,0 0,-14.285714 z"
       id="path3903"
       inkscape:connector-curvature="0"
       transform="translate(-6.1740047,140.79075)" />
    <path
       style="fill:#000000;fill-opacity:1;stroke:none"
       d="m 127.01755,80.757891 0,-14.464286 14.10714,0 14.10714,0 0,14.464286 0,14.464286 -14.10714,0 -14.10714,0 0,-14.464286 z"
       id="path3905"
       inkscape:connector-curvature="0"
       transform="translate(-6.1740047,140.79075)" />
    <path
       style="fill:#000000;fill-opacity:1;stroke:none"
       d="m 127.01755,110.93646 0,-14.285712 14.10714,0 14.10714,0 0,14.285712 0,14.28572 -14.10714,0 -14.10714,0 0,-14.28572 z"
       id="path3907"
       inkscape:connector-curvature="0"
       transform="translate(-6.1740047,140.79075)" />
    <path
       style="fill:#000000;fill-opacity:1;stroke:none"
       d="m 127.01755,140.93646 0,-14.28571 14.10714,0 14.10714,0 0,14.28571 0,14.28572 -14.10714,0 -14.10714,0 0,-14.28572 z"
       id="path3909"
       inkscape:connector-curvature="0"
       transform="translate(-6.1740047,140.79075)" />
    <path
       style="fill:#000000;fill-opacity:1;stroke:none"
       d="m 127.01755,140.93646 0,-14.28571 14.10714,0 14.10714,0 0,14.28571 0,14.28572 -14.10714,0 -14.10714,0 0,-14.28572 z"
       id="path3911"
       inkscape:connector-curvature="0"
       transform="translate(-6.1740047,140.79075)" />
    <path
       style="fill:#000000;fill-opacity:1;stroke:none"
       d="m 97.017547,140.93646 0,-14.28571 14.285713,0 14.28572,0 0,14.28571 0,14.28572 -14.28572,0 -14.285713,0 0,-14.28572 z"
       id="path3913"
       inkscape:connector-curvature="0"
       transform="translate(-6.1740047,140.79075)" />
    <path
       style="fill:#000000;fill-opacity:1;stroke:none"
       d="m 66.660404,140.93646 0,-14.28571 14.464286,0 14.464285,0 0,14.28571 0,14.28572 -14.464285,0 -14.464286,0 0,-14.28572 z"
       id="path3915"
       inkscape:connector-curvature="0"
       transform="translate(-6.1740047,140.79075)" />
    <path
       style="fill:#000000;fill-opacity:1;stroke:none"
       d="m 36.660404,140.93646 0,-14.28571 14.285714,0 14.285714,0 0,14.28571 0,14.28572 -14.285714,0 -14.285714,0 0,-14.28572 z"
       id="path3917"
       inkscape:connector-curvature="0"
       transform="translate(-6.1740047,140.79075)" />
    <path
       style="fill:#000000;fill-opacity:1;stroke:none"
       d="m 6.303261,140.93646 0,-14.28571 14.464286,0 14.464285,0 0,14.28571 0,14.28572 -14.464285,0 -14.464286,0 0,-14.28572 z"
       id="path3919"
       inkscape:connector-curvature="0"
       transform="translate(-6.1740047,140.79075)" />
    <path
       style="fill:#343434;fill-opacity:1;stroke:none"
       d="m 66.660404,50.57932 0,-14.285715 14.464286,0 14.464285,0 0,14.285715 0,14.285714 -14.464285,0 -14.464286,0 0,-14.285714 z"
       id="path3921"
       inkscape:connector-curvature="0"
       transform="translate(-6.1740047,140.79075)" />
    <path
       style="fill:#707070;fill-opacity:1;stroke:none"
       d="m 97.017547,50.57932 0,-14.285715 14.285713,0 14.28572,0 0,14.285715 0,14.285714 -14.28572,0 -14.285713,0 0,-14.285714 z"
       id="path3923"
       inkscape:connector-curvature="0"
       transform="translate(-6.1740047,140.79075)" />
    <path
       style="fill:#8c8c8c;fill-opacity:1;stroke:none"
       d="m 97.017547,80.757891 0,-14.464286 14.285713,0 14.28572,0 0,14.464286 0,14.464286 -14.28572,0 -14.285713,0 0,-14.464286 z"
       id="path3925"
       inkscape:connector-curvature="0"
       transform="translate(-6.1740047,140.79075)" />
    <path
       style="fill:#aeabab;fill-opacity:1;stroke:none"
       d="m 97.017547,110.93646 0,-14.285712 14.285713,0 14.28572,0 0,14.285712 0,14.28572 -14.28572,0 -14.285713,0 0,-14.28572 z"
       id="path3927"
       inkscape:connector-curvature="0"
       transform="translate(-6.1740047,140.79075)" />
    <path
       style="fill:#cbcbcb;fill-opacity:1;stroke:none"
       d="m 66.660404,110.93646 0,-14.285712 14.464286,0 14.464285,0 0,14.285712 0,14.28572 -14.464285,0 -14.464286,0 0,-14.28572 z"
       id="path3929"
       inkscape:connector-curvature="0"
       transform="translate(-6.1740047,140.79075)" />
    <path
       style="fill:#e6e6e6;fill-opacity:1;stroke:none"
       d="m 36.660404,110.93646 0,-14.285712 14.285714,0 14.285714,0 0,14.285712 0,14.28572 -14.285714,0 -14.285714,0 0,-14.28572 z"
       id="path3931"
       inkscape:connector-curvature="0"
       transform="translate(-6.1740047,140.79075)" />
  </g>
</svg>
