<?xml version="1.0" encoding="UTF-8" standalone="no"?>
<!-- Created with Inkscape (http://www.inkscape.org/) -->

<svg
   xmlns:dc="http://purl.org/dc/elements/1.1/"
   xmlns:cc="http://creativecommons.org/ns#"
   xmlns:rdf="http://www.w3.org/1999/02/22-rdf-syntax-ns#"
   xmlns:svg="http://www.w3.org/2000/svg"
   xmlns="http://www.w3.org/2000/svg"
   xmlns:sodipodi="http://sodipodi.sourceforge.net/DTD/sodipodi-0.dtd"
   xmlns:inkscape="http://www.inkscape.org/namespaces/inkscape"
   width="406.08133"
   height="406.08133"
   id="svg2"
   version="1.1"
   inkscape:version="0.48.4 r9939"
   sodipodi:docname="New document 1">
  <defs
     id="defs4" />
  <sodipodi:namedview
     id="base"
     pagecolor="#ffffff"
     bordercolor="#666666"
     borderopacity="1.0"
     inkscape:pageopacity="0.0"
     inkscape:pageshadow="2"
     inkscape:zoom="0.98994949"
     inkscape:cx="153.4654"
     inkscape:cy="218.4343"
     inkscape:document-units="px"
     inkscape:current-layer="layer1"
     showgrid="false"
     fit-margin-top="0"
     fit-margin-left="0"
     fit-margin-right="0"
     fit-margin-bottom="0"
     inkscape:window-width="1366"
     inkscape:window-height="706"
     inkscape:window-x="-8"
     inkscape:window-y="-8"
     inkscape:window-maximized="1" />
  <metadata
     id="metadata7">
    <rdf:RDF>
      <cc:Work
         rdf:about="">
        <dc:format>image/svg+xml</dc:format>
        <dc:type
           rdf:resource="http://purl.org/dc/dcmitype/StillImage" />
        <dc:title></dc:title>
      </cc:Work>
    </rdf:RDF>
  </metadata>
  <g
     inkscape:label="Layer 1"
     inkscape:groupmode="layer"
     id="layer1"
     transform="translate(-147.48226,-78.575129)">
    <path
       sodipodi:type="arc"
       style="fill:#000000;fill-opacity:1;stroke:none"
       id="path3824"
       sodipodi:cx="347.49246"
       sodipodi:cy="282.62595"
       sodipodi:rx="203.04066"
       sodipodi:ry="203.04066"
       d="m 550.53313,282.62595 c 0,112.13626 -90.90441,203.04066 -203.04067,203.04066 -112.13626,0 -203.04066,-90.9044 -203.04066,-203.04066 0,-112.13627 90.9044,-203.040669 203.04066,-203.040669 112.13626,0 203.04067,90.904399 203.04067,203.040669 z"
       transform="translate(3.0304595,-1.0101524)" />
    <path
       sodipodi:type="arc"
       style="fill:none;stroke:#000000;stroke-width:3;stroke-miterlimit:4;stroke-opacity:1;stroke-dasharray:none;stroke-dashoffset:0"
       id="path2985"
       sodipodi:cx="281.83255"
       sodipodi:cy="249.29091"
       sodipodi:rx="108.08632"
       sodipodi:ry="108.08632"
       d="m 389.91887,249.29091 c 0,59.69442 -48.39189,108.08632 -108.08632,108.08632 -59.69443,0 -108.08632,-48.3919 -108.08632,-108.08632 0,-59.69443 48.39189,-108.08632 108.08632,-108.08632 59.69443,0 108.08632,48.39189 108.08632,108.08632 z" />
    <path
       transform="translate(137.38075,2.7734375e-6)"
       sodipodi:type="arc"
       style="fill:none;stroke:#000000;stroke-width:3;stroke-miterlimit:4;stroke-opacity:1;stroke-dasharray:none;stroke-dashoffset:0"
       id="path2985-1"
       sodipodi:cx="281.83255"
       sodipodi:cy="249.29091"
       sodipodi:rx="108.08632"
       sodipodi:ry="108.08632"
       d="m 389.91887,249.29091 c 0,59.69442 -48.39189,108.08632 -108.08632,108.08632 -59.69443,0 -108.08632,-48.3919 -108.08632,-108.08632 0,-59.69443 48.39189,-108.08632 108.08632,-108.08632 59.69443,0 108.08632,48.39189 108.08632,108.08632 z" />
    <path
       transform="translate(68.690372,101.01526)"
       sodipodi:type="arc"
       style="fill:none;stroke:#000000;stroke-width:3;stroke-miterlimit:4;stroke-opacity:1;stroke-dasharray:none;stroke-dashoffset:0"
       id="path2985-7"
       sodipodi:cx="281.83255"
       sodipodi:cy="249.29091"
       sodipodi:rx="108.08632"
       sodipodi:ry="108.08632"
       d="m 389.91887,249.29091 c 0,59.69442 -48.39189,108.08632 -108.08632,108.08632 -59.69443,0 -108.08632,-48.3919 -108.08632,-108.08632 0,-59.69443 48.39189,-108.08632 108.08632,-108.08632 59.69443,0 108.08632,48.39189 108.08632,108.08632 z" />
    <path
       style="fill:#ff0000;fill-opacity:1;stroke:none"
       d="m 458.97963,331.19732 c -3.38675,-21.50843 -13.97213,-41.76023 -30.36873,-58.10101 -7.57003,-7.54426 -18.98908,-16.43399 -25.37565,-19.75495 -10.80918,-5.62067 -11.61229,-6.53252 -11.61676,-13.18978 -0.0127,-19.00427 -10.90927,-44.81368 -26.60901,-63.0259 l -9.99,-11.58872 9.71081,-6.16142 c 19.74047,-12.52515 47.61617,-18.09756 70.89233,-14.17153 21.51277,3.6286 40.81609,13.77019 56.98438,29.93847 42.69244,42.69245 42.80079,105.56492 0.25525,148.10529 -10.58936,10.58806 -26.70768,22.04028 -31.02039,22.04028 -0.35392,0 -1.64192,-6.34083 -2.86223,-14.09073 z"
       id="path3784"
       inkscape:connector-curvature="0" />
    <path
       style="fill:#00ff00;fill-opacity:1;stroke:none"
       d="m 328.98424,453.23983 c -26.99412,-5.84568 -53.31267,-24.43657 -68.51587,-48.39824 -7.3265,-11.54725 -14.31664,-32.45876 -14.31664,-42.82927 0,-6.70984 0.3007,-7.02278 5.55584,-5.78187 3.05571,0.72155 13.73807,1.82944 23.73858,2.46198 26.54921,1.67924 52.98135,-5.52067 69.5644,-18.94881 l 4.87607,-3.94841 8.45201,5.70419 c 24.15071,16.29912 56.93088,22.04708 86.30807,15.134 13.54873,-3.1883 13.31298,-3.64068 8.57505,16.45459 -4.63275,19.64911 -14.08388,36.21066 -29.41082,51.5376 -15.87481,15.87481 -35.68389,26.25017 -56.59613,29.64322 -16.35049,2.6529 -21.92073,2.50297 -38.23056,-1.02898 z"
       id="path3786"
       inkscape:connector-curvature="0" />
    <path
       style="fill:#0000ff;fill-opacity:1;stroke:none"
       d="m 227.21301,339.18199 c -32.24221,-20.44741 -50.02984,-52.39571 -50.02984,-89.85843 0,-31.40344 9.64882,-53.6467 33.05184,-76.1938 14.43264,-13.9048 31.28013,-22.60578 52.73871,-27.23721 13.49072,-2.91172 18.19569,-3.06524 32.05098,-1.04581 15.98098,2.32925 33.15587,8.76773 45.0724,16.89662 l 6.0621,4.13528 -8.66469,9.39758 c -15.7192,17.04877 -25.24656,37.78198 -27.82195,60.54541 l -1.32125,11.67831 -10.89081,5.70207 c -12.96556,6.78834 -34.41642,27.43915 -42.07259,40.50342 -6.90922,11.7897 -12.37258,27.56197 -14.23316,41.09001 -0.7937,5.77094 -2.08893,10.49261 -2.87829,10.49261 -0.78935,0 -5.7679,-2.74772 -11.06345,-6.10606 z"
       id="path3788"
       inkscape:connector-curvature="0" />
    <path
       style="fill:#ff00ff;fill-opacity:1;stroke:none"
       d="m 375.45125,242.7601 c -10.96338,-2.6409 -42.8049,-2.25936 -55.05331,0.65968 -5.23963,1.2487 -5.55584,0.92908 -5.55584,-5.61584 0,-8.26025 5.01543,-25.95864 10.29222,-36.31908 2.08207,-4.08793 8.50928,-13.10871 14.28269,-20.04616 l 10.49711,-12.61356 9.83135,10.69203 c 11.94535,12.99111 20.77853,29.93941 24.92717,47.82802 4.25935,18.36596 4.10446,18.62488 -9.22139,15.41491 z"
       id="path3790"
       inkscape:connector-curvature="0" />
    <path
       style="fill:#ffff00;fill-opacity:1;stroke:none"
       d="m 398.31539,352.47591 c -14.1139,-3.2068 -28.28653,-9.06007 -37.05456,-15.30346 l -5.93146,-4.22357 10.58951,-12.51824 c 12.6454,-14.94856 21.30234,-33.36337 24.28294,-51.65399 1.2003,-7.36569 2.37547,-13.68288 2.61149,-14.03819 0.23602,-0.35531 4.38107,1.36965 9.21121,3.83324 13.00041,6.6308 34.44273,29.08709 41.92306,43.90554 6.77563,13.42246 13.52063,38.77751 11.62784,43.71007 -2.642,6.88494 -37.69293,10.73442 -57.26003,6.2886 z"
       id="path3792"
       inkscape:connector-curvature="0" />
    <path
       style="fill:#00ffff;fill-opacity:1;stroke:none"
       d="m 271.40554,354.44332 c -1.11117,-0.34499 -7.24784,-1.70212 -13.63706,-3.01584 l -11.61675,-2.38859 0,-8.73368 c 0,-20.32864 11.92921,-45.52458 30.20837,-63.80373 9.06383,-9.06384 27.13329,-22.12716 30.60674,-22.12716 0.78935,0 2.08458,4.72168 2.87829,10.49261 3.04232,22.12032 12.44295,42.01134 27.64938,58.50397 l 8.66469,9.39758 -6.0621,4.13919 c -18.05482,12.32779 -55.04839,21.77155 -68.69156,17.53565 z"
       id="path3794"
       inkscape:connector-curvature="0" />
    <text
       xml:space="preserve"
       style="font-size:25px;font-style:normal;font-weight:normal;line-height:125%;letter-spacing:0px;word-spacing:0px;fill:#ffffff;fill-opacity:1;stroke:none;font-family:Sans"
       x="222.29515"
       y="236.47458"
       id="text3796"
       sodipodi:linespacing="125%"><tspan
         sodipodi:role="line"
         id="tspan3798"
         x="222.29515"
         y="236.47458">blue</tspan></text>
    <text
       xml:space="preserve"
       style="font-size:25px;font-style:normal;font-weight:normal;line-height:125%;letter-spacing:0px;word-spacing:0px;fill:#000000;fill-opacity:1;stroke:none;font-family:Sans"
       x="320.74405"
       y="413.59641"
       id="text3800"
       sodipodi:linespacing="125%"><tspan
         sodipodi:role="line"
         id="tspan3802"
         x="320.74405"
         y="413.59641">green</tspan></text>
    <text
       xml:space="preserve"
       style="font-size:25px;font-style:normal;font-weight:normal;line-height:125%;letter-spacing:0px;word-spacing:0px;fill:#ffffff;fill-opacity:1;stroke:none;font-family:Sans"
       x="427.85715"
       y="235.21933"
       id="text3804"
       sodipodi:linespacing="125%"><tspan
         sodipodi:role="line"
         id="tspan3806"
         x="427.85715"
         y="235.21933">red</tspan></text>
    <text
       xml:space="preserve"
       style="font-size:25px;font-style:normal;font-weight:normal;line-height:125%;letter-spacing:0px;word-spacing:0px;fill:#000000;fill-opacity:1;stroke:none;font-family:Sans"
       x="264.31546"
       y="328.56668"
       id="text3808"
       sodipodi:linespacing="125%"><tspan
         sodipodi:role="line"
         id="tspan3810"
         x="264.31546"
         y="328.56668">cyan</tspan></text>
    <text
       xml:space="preserve"
       style="font-size:25px;font-style:normal;font-weight:normal;line-height:125%;letter-spacing:0px;word-spacing:0px;fill:#000000;fill-opacity:1;stroke:none;font-family:Sans"
       x="376.03989"
       y="330.4137"
       id="text3812"
       sodipodi:linespacing="125%"><tspan
         sodipodi:role="line"
         id="tspan3814"
         x="376.03989"
         y="330.4137">yellow</tspan></text>
    <text
       xml:space="preserve"
       style="font-size:19.10060883px;font-style:normal;font-weight:normal;line-height:125%;letter-spacing:0px;word-spacing:0px;fill:#000000;fill-opacity:1;stroke:none;font-family:Sans"
       x="423.98489"
       y="176.57227"
       id="text3816"
       sodipodi:linespacing="125%"
       transform="scale(0.76402437,1.3088588)"><tspan
         sodipodi:role="line"
         id="tspan3818"
         x="423.98489"
         y="176.57227">magenta</tspan></text>
    <path
       style="fill:#ffffff;fill-opacity:1;stroke:none"
       d="m 342.74673,322.44971 c -15.56713,-16.81394 -26.53717,-39.54479 -28.37191,-58.78899 -0.32652,-3.42479 -0.80768,-7.63936 -1.06924,-9.36572 -0.45743,-3.01903 -0.27246,-3.20246 4.84645,-4.80619 20.13459,-6.30808 43.59548,-6.53061 62.81032,-0.59575 l 6.65639,2.05595 0,4.39351 c 0,5.80097 -2.68391,19.74155 -5.2622,27.33258 -2.80297,8.25253 -10.08127,22.28201 -14.99654,28.90701 -4.34453,5.85571 -15.96879,18.07763 -17.19364,18.07763 -0.40934,0 -3.74817,-3.24452 -7.41963,-7.21003 z"
       id="path3826"
       inkscape:connector-curvature="0" />
  </g>
</svg>
