<?xml version="1.0" encoding="UTF-8" standalone="no"?>
<!-- Created with Inkscape (http://www.inkscape.org/) -->

<svg
   xmlns:dc="http://purl.org/dc/elements/1.1/"
   xmlns:cc="http://creativecommons.org/ns#"
   xmlns:rdf="http://www.w3.org/1999/02/22-rdf-syntax-ns#"
   xmlns:svg="http://www.w3.org/2000/svg"
   xmlns="http://www.w3.org/2000/svg"
   xmlns:sodipodi="http://sodipodi.sourceforge.net/DTD/sodipodi-0.dtd"
   xmlns:inkscape="http://www.inkscape.org/namespaces/inkscape"
   width="1000"
   height="1052.36"
   id="svg2"
   version="1.1"
   inkscape:version="0.48.4 r9939"
   sodipodi:docname="J2.svg">
  <defs
     id="defs4" />
  <sodipodi:namedview
     id="base"
     pagecolor="#ffffff"
     bordercolor="#666666"
     borderopacity="1.0"
     inkscape:pageopacity="0.0"
     inkscape:pageshadow="2"
     inkscape:zoom="0.175"
     inkscape:cx="1171.5178"
     inkscape:cy="1027.7455"
     inkscape:document-units="px"
     inkscape:current-layer="layer1"
     showgrid="false"
     inkscape:window-width="1366"
     inkscape:window-height="706"
     inkscape:window-x="-8"
     inkscape:window-y="-8"
     inkscape:window-maximized="1" />
  <metadata
     id="metadata7">
    <rdf:RDF>
      <cc:Work
         rdf:about="">
        <dc:format>image/svg+xml</dc:format>
        <dc:type
           rdf:resource="http://purl.org/dc/dcmitype/StillImage" />
        <dc:title />
      </cc:Work>
    </rdf:RDF>
  </metadata>
  <g
     inkscape:label="Layer 1"
     inkscape:groupmode="layer"
     id="layer1"
     transform="translate(0,-0.00218262)">
    <path
       d="M 0,0 0,1052.36 M 25,0 25,1052.36 M 50,0 50,1052.36 M 75,0 75,1052.36 M 100,0 100,1052.36 M 125,0 125,1052.36 M 150,0 150,1052.36 M 175,0 175,1052.36 M 200,0 200,1052.36 M 225,0 225,1052.36 M 250,0 250,1052.36 M 275,0 275,1052.36 M 300,0 300,1052.36 M 325,0 325,1052.36 M 350,0 350,1052.36 M 375,0 375,1052.36 M 400,0 400,1052.36 M 425,0 425,1052.36 M 450,0 450,1052.36 M 475,0 475,1052.36 M 500,0 500,1052.36 M 525,0 525,1052.36 M 550,0 550,1052.36 M 575,0 575,1052.36 M 600,0 600,1052.36 M 625,0 625,1052.36 M 650,0 650,1052.36 M 675,0 675,1052.36 M 700,0 700,1052.36 M 725,0 725,1052.36 M 750,0 750,1052.36 M 775,0 775,1052.36 M 800,0 800,1052.36 M 825,0 825,1052.36 M 850,0 850,1052.36 M 875,0 875,1052.36 M 900,0 900,1052.36 M 925,0 925,1052.36 M 950,0 950,1052.36 M 975,0 975,1052.36 M 1000,0 l 0,1052.36 M 0,0 1000,0 M 0,25 1000,25 M 0,50 1000,50 M 0,75 1000,75 M 0,100 1000,100 M 0,125 1000,125 M 0,150 1000,150 M 0,175 1000,175 M 0,200 1000,200 M 0,225 1000,225 M 0,250 1000,250 M 0,275 1000,275 M 0,300 1000,300 M 0,325 1000,325 M 0,350 1000,350 M 0,375 1000,375 M 0,400 1000,400 M 0,425 1000,425 M 0,450 1000,450 M 0,475 1000,475 M 0,500 1000,500 M 0,525 1000,525 M 0,550 1000,550 M 0,575 1000,575 M 0,600 1000,600 M 0,625 1000,625 M 0,650 1000,650 M 0,675 1000,675 M 0,700 1000,700 M 0,725 1000,725 M 0,750 1000,750 M 0,775 1000,775 M 0,800 1000,800 M 0,825 1000,825 M 0,850 1000,850 M 0,875 1000,875 M 0,900 1000,900 M 0,925 1000,925 M 0,950 1000,950 M 0,975 l 1000,0 m -1000,25 1000,0 m -1000,25 1000,0 m -1000,25 1000,0"
       style="fill:none;fill-opacity:0.75000000000000000;fill-rule:evenodd;stroke:#000000;stroke-linecap:butt;stroke-linejoin:miter;stroke-opacity:1;stroke-width:0.5;stroke-miterlimit:4;stroke-dasharray:none"
       id="path3033" />
    <path
       style="fill:#000000;fill-opacity:1;stroke:none"
       d="m 250.35946,775.16869 0,-24.28571 24.64286,0 24.64285,0 0,24.28571 0,24.28572 -24.64285,0 -24.64286,0 0,-24.28572 z"
       id="path4153"
       inkscape:connector-curvature="0"
       transform="translate(0,0.00218262)" />
    <path
       style="fill:#000000;fill-opacity:1;stroke:none"
       d="m 250.35946,825.16869 0,-24.28571 24.64286,0 24.64285,0 0,24.28571 0,24.28572 -24.64285,0 -24.64286,0 0,-24.28572 z"
       id="path4155"
       inkscape:connector-curvature="0"
       transform="translate(0,0.00218262)" />
    <path
       style="fill:#000000;fill-opacity:1;stroke:none"
       d="m 250.35946,875.16869 0,-24.28571 24.64286,0 24.64285,0 0,24.28571 0,24.28572 -24.64285,0 -24.64286,0 0,-24.28572 z"
       id="path4159"
       inkscape:connector-curvature="0"
       transform="translate(0,0.00218262)" />
    <path
       style="fill:#000000;fill-opacity:1;stroke:none"
       d="m 300.35946,925.16869 0,-24.28571 24.64286,0 24.64285,0 0,24.28571 0,24.28572 -24.64285,0 -24.64286,0 0,-24.28572 z"
       id="path4161"
       inkscape:connector-curvature="0"
       transform="translate(0,0.00218262)" />
    <path
       style="fill:#000000;fill-opacity:1;stroke:none"
       d="m 400.35946,975.16869 0,-24.28571 24.64286,0 24.64285,0 0,24.28571 0,24.28572 -24.64285,0 -24.64286,0 0,-24.28572 z"
       id="path4163"
       inkscape:connector-curvature="0"
       transform="translate(0,0.00218262)" />
    <path
       style="fill:#000000;fill-opacity:1;stroke:none"
       d="m 350.35946,925.16869 0,-24.28571 24.64286,0 24.64285,0 0,24.28571 0,24.28572 -24.64285,0 -24.64286,0 0,-24.28572 z"
       id="path4165"
       inkscape:connector-curvature="0"
       transform="translate(0,0.00218262)" />
    <path
       style="fill:#000000;fill-opacity:1;stroke:none"
       d="m 450.35946,975.16869 0,-24.28571 24.64286,0 24.64285,0 0,24.28571 0,24.28572 -24.64285,0 -24.64286,0 0,-24.28572 z"
       id="path4167"
       inkscape:connector-curvature="0"
       transform="translate(0,0.00218262)" />
    <path
       style="fill:#000000;fill-opacity:1;stroke:none"
       d="m 500.35946,925.16869 0,-24.28571 24.64286,0 24.64285,0 0,24.28571 0,24.28572 -24.64285,0 -24.64286,0 0,-24.28572 z"
       id="path4169"
       inkscape:connector-curvature="0"
       transform="translate(0,0.00218262)" />
    <path
       style="fill:#000000;fill-opacity:1;stroke:none"
       d="m 550.75848,925.16869 0,-24.28571 24.28571,0 24.28572,0 0,24.28571 0,24.28572 -24.28572,0 -24.28571,0 0,-24.28572 z"
       id="path4171"
       inkscape:connector-curvature="0"
       transform="translate(0,0.00218262)" />
    <path
       style="fill:#000000;fill-opacity:1;stroke:none"
       d="m 600.75848,875.16869 0,-24.28571 24.28571,0 24.28572,0 0,24.28571 0,24.28572 -24.28572,0 -24.28571,0 0,-24.28572 z"
       id="path4173"
       inkscape:connector-curvature="0"
       transform="translate(0,0.00218262)" />
    <path
       style="fill:#000000;fill-opacity:1;stroke:none"
       d="m 600.75848,825.16869 0,-24.28571 24.28571,0 24.28572,0 0,24.28571 0,24.28572 -24.28572,0 -24.28571,0 0,-24.28572 z"
       id="path4175"
       inkscape:connector-curvature="0"
       transform="translate(0,0.00218262)" />
    <path
       style="fill:#000000;fill-opacity:1;stroke:none"
       d="m 600.75848,775.16869 0,-24.28571 24.28571,0 24.28572,0 0,24.28571 0,24.28572 -24.28572,0 -24.28571,0 0,-24.28572 z"
       id="path4177"
       inkscape:connector-curvature="0"
       transform="translate(0,0.00218262)" />
    <path
       style="fill:#000000;fill-opacity:1;stroke:none"
       d="m 600.75848,725.16869 0,-24.28571 24.28571,0 24.28572,0 0,24.28571 0,24.28572 -24.28572,0 -24.28571,0 0,-24.28572 z"
       id="path4179"
       inkscape:connector-curvature="0"
       transform="translate(0,0.00218262)" />
    <path
       style="fill:#000000;fill-opacity:1;stroke:none"
       d="m 600.75848,675.16869 0,-24.28571 24.28571,0 24.28572,0 0,24.28571 0,24.28572 -24.28572,0 -24.28571,0 0,-24.28572 z"
       id="path4181"
       inkscape:connector-curvature="0"
       transform="translate(0,0.00218262)" />
    <path
       style="fill:#000000;fill-opacity:1;stroke:none"
       d="m 600.75848,625.16869 0,-24.28571 24.28571,0 24.28572,0 0,24.28571 0,24.28572 -24.28572,0 -24.28571,0 0,-24.28572 z"
       id="path4183"
       inkscape:connector-curvature="0"
       transform="translate(0,0.00218262)" />
    <path
       style="fill:#000000;fill-opacity:1;stroke:none"
       d="m 650.75848,625.16869 0,-24.28571 24.28571,0 24.28572,0 0,24.28571 0,24.28572 -24.28572,0 -24.28571,0 0,-24.28572 z"
       id="path4185"
       inkscape:connector-curvature="0"
       transform="translate(0,0.00218262)" />
    <path
       style="fill:#000000;fill-opacity:1;stroke:none"
       d="m 650.75848,675.16869 0,-24.28571 24.28571,0 24.28572,0 0,24.28571 0,24.28572 -24.28572,0 -24.28571,0 0,-24.28572 z"
       id="path4187"
       inkscape:connector-curvature="0"
       transform="translate(0,0.00218262)" />
    <path
       style="fill:#000000;fill-opacity:1;stroke:none"
       d="m 650.75848,725.16869 0,-24.28571 24.28571,0 24.28572,0 0,24.28571 0,24.28572 -24.28572,0 -24.28571,0 0,-24.28572 z"
       id="path4189"
       inkscape:connector-curvature="0"
       transform="translate(0,0.00218262)" />
    <path
       style="fill:#000000;fill-opacity:1;stroke:none"
       d="m 650.75848,575.16869 0,-24.28571 24.28571,0 24.28572,0 0,24.28571 0,24.28572 -24.28572,0 -24.28571,0 0,-24.28572 z"
       id="path4191"
       inkscape:connector-curvature="0"
       transform="translate(0,0.00218262)" />
    <path
       style="fill:#000000;fill-opacity:1;stroke:none"
       d="m 600.75848,575.16869 0,-24.28571 24.28571,0 24.28572,0 0,24.28571 0,24.28572 -24.28572,0 -24.28571,0 0,-24.28572 z"
       id="path4193"
       inkscape:connector-curvature="0"
       transform="translate(0,0.00218262)" />
    <path
       style="fill:#000000;fill-opacity:1;stroke:none"
       d="m 600.75848,525.16869 0,-24.28571 24.28571,0 24.28572,0 0,24.28571 0,24.28572 -24.28572,0 -24.28571,0 0,-24.28572 z"
       id="path4195"
       inkscape:connector-curvature="0"
       transform="translate(0,0.00218262)" />
    <path
       style="fill:#000000;fill-opacity:1;stroke:none"
       d="m 650.75848,525.16869 0,-24.28571 24.28571,0 24.28572,0 0,24.28571 0,24.28572 -24.28572,0 -24.28571,0 0,-24.28572 z"
       id="path4197"
       inkscape:connector-curvature="0"
       transform="translate(0,0.00218262)" />
    <path
       style="fill:#000000;fill-opacity:1;stroke:none"
       d="m 650.75848,475.16869 0,-24.28571 24.28571,0 24.28572,0 0,24.28571 0,24.28572 -24.28572,0 -24.28571,0 0,-24.28572 z"
       id="path4199"
       inkscape:connector-curvature="0"
       transform="translate(0,0.00218262)" />
    <path
       style="fill:#000000;fill-opacity:1;stroke:none"
       d="m 600.75848,475.16869 0,-24.28571 24.28571,0 24.28572,0 0,24.28571 0,24.28572 -24.28572,0 -24.28571,0 0,-24.28572 z"
       id="path4201"
       inkscape:connector-curvature="0"
       transform="translate(0,0.00218262)" />
    <path
       style="fill:#000000;fill-opacity:1;stroke:none"
       d="m 650.75848,425.16869 0,-24.28571 24.28571,0 24.28572,0 0,24.28571 0,24.28572 -24.28572,0 -24.28571,0 0,-24.28572 z"
       id="path4203"
       inkscape:connector-curvature="0"
       transform="translate(0,0.00218262)" />
    <path
       style="fill:#000000;fill-opacity:1;stroke:none"
       d="m 600.75848,425.16869 0,-24.28571 24.28571,0 24.28572,0 0,24.28571 0,24.28572 -24.28572,0 -24.28571,0 0,-24.28572 z"
       id="path4205"
       inkscape:connector-curvature="0"
       transform="translate(0,0.00218262)" />
    <path
       style="fill:#000000;fill-opacity:1;stroke:none"
       d="m 600.75848,375.16869 0,-24.28571 24.28571,0 24.28572,0 0,24.28571 0,24.28572 -24.28572,0 -24.28571,0 0,-24.28572 z"
       id="path4207"
       inkscape:connector-curvature="0"
       transform="translate(0,0.00218262)" />
    <path
       style="fill:#000000;fill-opacity:1;stroke:none"
       d="m 650.75848,375.16869 0,-24.28571 24.28571,0 24.28572,0 0,24.28571 0,24.28572 -24.28572,0 -24.28571,0 0,-24.28572 z"
       id="path4209"
       inkscape:connector-curvature="0"
       transform="translate(0,0.00218262)" />
    <path
       style="fill:#000000;fill-opacity:1;stroke:none"
       d="m 650.75848,325.16869 0,-24.28571 24.28571,0 24.28572,0 0,24.28571 0,24.28572 -24.28572,0 -24.28571,0 0,-24.28572 z"
       id="path4211"
       inkscape:connector-curvature="0"
       transform="translate(0,0.00218262)" />
    <path
       style="fill:#000000;fill-opacity:1;stroke:none"
       d="m 600.75848,325.16869 0,-24.28571 24.28571,0 24.28572,0 0,24.28571 0,24.28572 -24.28572,0 -24.28571,0 0,-24.28572 z"
       id="path4213"
       inkscape:connector-curvature="0"
       transform="translate(0,0.00218262)" />
    <path
       style="fill:#000000;fill-opacity:1;stroke:none"
       d="m 600.75848,275.16869 0,-24.28571 24.28571,0 24.28572,0 0,24.28571 0,24.28572 -24.28572,0 -24.28571,0 0,-24.28572 z"
       id="path4215"
       inkscape:connector-curvature="0"
       transform="translate(0,0.00218262)" />
    <path
       style="fill:#000000;fill-opacity:1;stroke:none"
       d="m 650.75848,275.16869 0,-24.28571 24.28571,0 24.28572,0 0,24.28571 0,24.28572 -24.28572,0 -24.28571,0 0,-24.28572 z"
       id="path4217"
       inkscape:connector-curvature="0"
       transform="translate(0,0.00218262)" />
    <path
       style="fill:#000000;fill-opacity:1;stroke:none"
       d="m 600.75848,225.16869 0,-24.28571 24.28571,0 24.28572,0 0,24.28571 0,24.28572 -24.28572,0 -24.28571,0 0,-24.28572 z"
       id="path4219"
       inkscape:connector-curvature="0"
       transform="translate(0,0.00218262)" />
    <path
       style="fill:#000000;fill-opacity:1;stroke:none"
       d="m 650.75848,225.16869 0,-24.28571 24.28571,0 24.28572,0 0,24.28571 0,24.28572 -24.28572,0 -24.28571,0 0,-24.28572 z"
       id="path4221"
       inkscape:connector-curvature="0"
       transform="translate(0,0.00218262)" />
    <path
       style="fill:#000000;fill-opacity:1;stroke:none"
       d="m 650.75848,175.16869 0,-24.28571 24.28571,0 24.28572,0 0,24.28571 0,24.28572 -24.28572,0 -24.28571,0 0,-24.28572 z"
       id="path4223"
       inkscape:connector-curvature="0"
       transform="translate(0,0.00218262)" />
    <path
       style="fill:#000000;fill-opacity:1;stroke:none"
       d="m 600.75848,175.16869 0,-24.28571 24.28571,0 24.28572,0 0,24.28571 0,24.28572 -24.28572,0 -24.28571,0 0,-24.28572 z"
       id="path4225"
       inkscape:connector-curvature="0"
       transform="translate(0,0.00218262)" />
    <path
       style="fill:#000000;fill-opacity:1;stroke:none"
       d="m 600.75848,125.16869 0,-24.28571 24.28571,0 24.28572,0 0,24.28571 0,24.28572 -24.28572,0 -24.28571,0 0,-24.28572 z"
       id="path4227"
       inkscape:connector-curvature="0"
       transform="translate(0,0.00218262)" />
    <path
       style="fill:#000000;fill-opacity:1;stroke:none"
       d="m 650.75848,125.16869 0,-24.28571 24.28571,0 24.28572,0 0,24.28571 0,24.28572 -24.28572,0 -24.28571,0 0,-24.28572 z"
       id="path4229"
       inkscape:connector-curvature="0"
       transform="translate(0,0.00218262)" />
    <path
       style="fill:#000000;fill-opacity:1;stroke:none"
       d="m 650.62715,774.75933 0,-24.24366 24.24366,0 24.24366,0 0,24.24366 0,24.24366 -24.24366,0 -24.24366,0 0,-24.24366 z"
       id="path4231"
       inkscape:connector-curvature="0"
       transform="translate(0,0.00218262)" />
    <path
       style="fill:#000000;fill-opacity:1;stroke:none"
       d="m 650.62715,825.26696 0,-24.24366 24.24366,0 24.24366,0 0,24.24366 0,24.24366 -24.24366,0 -24.24366,0 0,-24.24366 z"
       id="path4233"
       inkscape:connector-curvature="0"
       transform="translate(0,0.00218262)" />
    <path
       style="fill:#000000;fill-opacity:1;stroke:none"
       d="m 550.62205,874.76443 0,-24.24366 24.24366,0 24.24366,0 0,24.24366 0,24.24366 -24.24366,0 -24.24366,0 0,-24.24366 z"
       id="path4235"
       inkscape:connector-curvature="0"
       transform="translate(0,0.00218262)" />
    <path
       style="fill:#000000;fill-opacity:1;stroke:none"
       d="m 501.12458,974.76953 0,-24.24366 24.24366,0 24.24366,0 0,24.24366 0,24.24367 -24.24366,0 -24.24366,0 0,-24.24367 z"
       id="path4237"
       inkscape:connector-curvature="0"
       transform="translate(0,0.00218262)" />
    <path
       style="fill:#000000;fill-opacity:1;stroke:none"
       d="m 400.54495,975.27461 c 6.6e-4,-13.33401 0.1444,-18.64913 0.31942,-11.81136 0.17502,6.83776 0.17448,17.74741 -0.001,24.24366 -0.17568,6.49625 -0.31888,0.90171 -0.31822,-12.4323 z"
       id="path4239"
       inkscape:connector-curvature="0"
       transform="translate(0,0.00218262)" />
    <path
       style="fill:#000000;fill-opacity:1;stroke:none"
       d="m 350.61185,974.76953 0,-24.24366 24.24366,0 24.24366,0 0,24.24366 0,24.24367 -24.24366,0 -24.24366,0 0,-24.24367 z"
       id="path4241"
       inkscape:connector-curvature="0"
       transform="translate(0,0.00218262)" />
    <path
       style="fill:#000000;fill-opacity:1;stroke:none"
       d="m 301.11437,874.76443 0,-24.24366 24.24366,0 24.24366,0 0,24.24366 0,24.24366 -24.24366,0 -24.24366,0 0,-24.24366 z"
       id="path4245"
       inkscape:connector-curvature="0"
       transform="translate(0,0.00218262)" />
    <path
       style="fill:#000000;fill-opacity:1;stroke:none"
       d="m 200.41975,825.21916 0,-24.28572 24.28572,0 24.28571,0 0,24.28572 0,24.28571 -24.28571,0 -24.28572,0 0,-24.28571 z"
       id="path4247"
       inkscape:connector-curvature="0"
       transform="translate(0,0.00218262)" />
    <path
       style="fill:#000000;fill-opacity:1;stroke:none"
       d="m 200.41975,775.21916 0,-24.28572 24.28572,0 24.28571,0 0,24.28572 0,24.28571 -24.28571,0 -24.28572,0 0,-24.28571 z"
       id="path4249"
       inkscape:connector-curvature="0"
       transform="translate(0,0.00218262)" />
    <path
       style="fill:#000000;fill-opacity:1;stroke:none"
       d="m 401.17034,924.91971 0,-24.24366 24.24366,0 24.24366,0 0,24.24366 0,24.24366 -24.24366,0 -24.24366,0 0,-24.24366 z"
       id="path4251"
       inkscape:connector-curvature="0"
       transform="translate(0,0.00218262)" />
    <path
       style="fill:#000000;fill-opacity:1;stroke:none"
       d="m 450.66782,924.91971 0,-24.24366 24.24366,0 24.24366,0 0,24.24366 0,24.24366 -24.24366,0 -24.24366,0 0,-24.24366 z"
       id="path4253"
       inkscape:connector-curvature="0"
       transform="translate(0,0.00218262)" />
    <path
       style="fill:#000000;fill-opacity:1;stroke:none"
       d="m 351.02723,887.60354 0,-12.12183 11.61676,0 11.61675,0 0,12.12183 0,12.12183 -11.61675,0 -11.61676,0 0,-12.12183 z"
       id="path3803"
       inkscape:connector-curvature="0"
       transform="translate(0,0.00218262)" />
    <path
       style="fill:#000000;fill-opacity:1;stroke:none"
       d="m 525.78362,887.60354 0,-12.12183 11.61676,0 11.61675,0 0,12.12183 0,12.12183 -11.61675,0 -11.61676,0 0,-12.12183 z"
       id="path3805"
       inkscape:connector-curvature="0"
       transform="translate(0,0.00218262)" />
    <path
       style="fill:#000000;fill-opacity:1;stroke:none"
       d="m 225.76832,862.8548 0,-11.61675 11.61675,0 11.61676,0 0,11.61675 0,11.61675 -11.61676,0 -11.61675,0 0,-11.61675 z"
       id="path3807"
       inkscape:connector-curvature="0"
       transform="translate(0,0.00218262)" />
    <path
       style="fill:#000000;fill-opacity:1;stroke:none"
       d="m 275.26579,912.35228 0,-11.61676 12.12183,0 12.12183,0 0,11.61676 0,11.61675 -12.12183,0 -12.12183,0 0,-11.61675 z"
       id="path3809"
       inkscape:connector-curvature="0"
       transform="translate(0,0.00218262)" />
    <path
       style="fill:#000000;fill-opacity:1;stroke:none"
       d="m 325.77342,962.35483 0,-12.12183 11.61675,0 11.61676,0 0,12.12183 0,12.12183 -11.61676,0 -11.61675,0 0,-12.12183 z"
       id="path3811"
       inkscape:connector-curvature="0"
       transform="translate(0,0.00218262)" />
    <path
       style="fill:#000000;fill-opacity:1;stroke:none"
       d="m 551.03744,962.35483 0,-12.12183 11.61675,0 11.61676,0 0,12.12183 0,12.12183 -11.61676,0 -11.61675,0 0,-12.12183 z"
       id="path3813"
       inkscape:connector-curvature="0"
       transform="translate(0,0.00218262)" />
    <path
       style="fill:#000000;fill-opacity:1;stroke:none"
       d="m 575.2811,962.35483 0,-12.12183 12.12183,0 12.12183,0 0,12.12183 0,12.12183 -12.12183,0 -12.12183,0 0,-12.12183 z"
       id="path3815"
       inkscape:connector-curvature="0"
       transform="translate(0,0.00218262)" />
    <path
       style="fill:#000000;fill-opacity:1;stroke:none"
       d="m 375.27089,887.60354 0,-12.12183 12.12183,0 12.12184,0 0,12.12183 0,12.12183 -12.12184,0 -12.12183,0 0,-12.12183 z"
       id="path3821"
       inkscape:connector-curvature="0"
       transform="translate(0,0.00218262)" />
    <path
       style="fill:#000000;fill-opacity:1;stroke:none"
       d="m 500.52981,887.60354 0,-12.12183 11.61675,0 11.61676,0 0,12.12183 0,12.12183 -11.61676,0 -11.61675,0 0,-12.12183 z"
       id="path3823"
       inkscape:connector-curvature="0"
       transform="translate(0,0.00218262)" />
    <path
       style="fill:#000000;fill-opacity:1;stroke:none"
       d="m 600.53491,937.60609 0,-11.61676 11.61676,0 11.61675,0 0,11.61676 0,11.61675 -11.61675,0 -11.61676,0 0,-11.61675 z"
       id="path3825"
       inkscape:connector-curvature="0"
       transform="translate(0,0.00218262)" />
    <path
       style="fill:#000000;fill-opacity:1;stroke:none"
       d="m 600.53491,912.35228 0,-11.61676 11.61676,0 11.61675,0 0,11.61676 0,11.61675 -11.61675,0 -11.61676,0 0,-11.61675 z"
       id="path3827"
       inkscape:connector-curvature="0"
       transform="translate(0,0.00218262)" />
    <path
       style="fill:#000000;fill-opacity:1;stroke:none"
       d="m 625.78873,912.35228 0,-11.61676 11.61675,0 11.61675,0 0,11.61676 0,11.61675 -11.61675,0 -11.61675,0 0,-11.61675 z"
       id="path3829"
       inkscape:connector-curvature="0"
       transform="translate(0,0.00218262)" />
    <path
       style="fill:#000000;fill-opacity:1;stroke:none"
       d="m 651.04254,862.8548 0,-11.61675 11.61675,0 11.61676,0 0,11.61675 0,11.61675 -11.61676,0 -11.61675,0 0,-11.61675 z"
       id="path3831"
       inkscape:connector-curvature="0"
       transform="translate(0,0.00218262)" />
    <path
       style="fill:#000000;fill-opacity:1;stroke:none"
       d="m 575.2811,837.60099 0,-11.61676 12.12183,0 12.12183,0 0,11.61676 0,11.61675 -12.12183,0 -12.12183,0 0,-11.61675 z"
       id="path3833"
       inkscape:connector-curvature="0"
       transform="translate(0,0.00218262)" />
    <path
       style="fill:#000000;fill-opacity:1;stroke:none"
       d="m 575.2811,812.34717 0,-11.61675 12.12183,0 12.12183,0 0,11.61675 0,11.61676 -12.12183,0 -12.12183,0 0,-11.61676 z"
       id="path3835"
       inkscape:connector-curvature="0"
       transform="translate(0,0.00218262)" />
    <path
       style="fill:#000000;fill-opacity:1;stroke:none"
       d="m 250.62546,912.54028 0,-11.61676 11.61676,0 11.61675,0 0,11.61676 0,11.61675 -11.61675,0 -11.61676,0 0,-11.61675 z"
       id="path3839"
       inkscape:connector-curvature="0"
       transform="translate(0,0.00218262)" />
    <path
       style="fill:#000000;fill-opacity:1;stroke:none"
       d="m 275.87928,937.79409 0,-11.61675 11.61675,0 11.61676,0 0,11.61675 0,11.61675 -11.61676,0 -11.61675,0 0,-11.61675 z"
       id="path3841"
       inkscape:connector-curvature="0"
       transform="translate(0,0.00218262)" />
    <path
       style="fill:#000000;fill-opacity:1;stroke:none"
       d="m 225.62882,887.1501 0,-11.61675 11.61675,0 11.61675,0 0,11.61675 0,11.61675 -11.61675,0 -11.61675,0 0,-11.61675 z"
       id="path3843"
       inkscape:connector-curvature="0"
       transform="translate(0,0.00218262)" />
    <path
       style="fill:#000000;fill-opacity:1;stroke:none"
       d="m 300.58135,962.91082 0,-11.42857 11.42857,0 11.42857,0 0,11.42857 0,11.42857 -11.42857,0 -11.42857,0 0,-11.42857 z"
       id="path3845"
       inkscape:connector-curvature="0"
       transform="translate(0,0.00218262)" />
    <path
       style="fill:#000000;fill-opacity:1;stroke:none"
       d="m 300.75372,838.24499 0,-11.11167 11.11167,0 11.11168,0 0,11.11167 0,11.11168 -11.11168,0 -11.11167,0 0,-11.11168 z"
       id="path3847"
       inkscape:connector-curvature="0"
       transform="translate(0,0.00218262)" />
    <path
       style="fill:#000000;fill-opacity:1;stroke:none"
       d="m 651.06198,887.35887 0,-11.61675 11.61676,0 11.61675,0 0,11.61675 0,11.61676 -11.61675,0 -11.61676,0 0,-11.61676 z"
       id="path3851"
       inkscape:connector-curvature="0"
       transform="translate(0,0.00218262)" />
    <path
       style="fill:#000000;fill-opacity:1;stroke:none"
       d="m 675.30564,862.61013 0,-12.12183 12.12183,0 12.12183,0 0,12.12183 0,12.12183 -12.12183,0 -12.12183,0 0,-12.12183 z"
       id="path3853"
       inkscape:connector-curvature="0"
       transform="translate(0,0.00218262)" />
  </g>
</svg>
